<?xml version="1.0" encoding="utf-8"?>
<!-- Generator: Adobe Illustrator 22.1.0, SVG Export Plug-In . SVG Version: 6.00 Build 0)  -->
<svg version="1.1" id="图形" xmlns="http://www.w3.org/2000/svg" xmlns:xlink="http://www.w3.org/1999/xlink" x="0px" y="0px"
	 viewBox="90.288 58.809 850.394 850.394" enable-background="new 90.288 58.809 850.394 850.394" xml:space="preserve">
<g>
	<path d="M515.485,730.892c79.303,0,153.86-30.855,209.938-86.883c56.085-56.035,86.973-130.538,86.973-209.786V88.809
		c0-16.568-13.432-30-30-30s-30,13.432-30,30v345.414c0,130.5-106.278,236.669-236.911,236.669
		c-130.633,0-236.911-106.169-236.911-236.669V88.809c0-16.568-13.432-30-30-30s-30,13.432-30,30v345.414
		c0,79.248,30.888,153.751,86.973,209.786C361.625,700.036,436.183,730.892,515.485,730.892z"/>
	<path d="M874.497,849.202H156.473c-16.568,0-30,13.432-30,30s13.432,30,30,30h718.025c16.568,0,30-13.432,30-30
		S891.066,849.202,874.497,849.202z"/>
</g>
</svg>
