<?xml version="1.0" encoding="utf-8"?>
<!-- Generator: Adobe Illustrator 22.1.0, SVG Export Plug-In . SVG Version: 6.00 Build 0)  -->
<svg version="1.1" id="图形" xmlns="http://www.w3.org/2000/svg" xmlns:xlink="http://www.w3.org/1999/xlink" x="0px" y="0px"
	 viewBox="90.288 58.809 850.394 850.394" enable-background="new 90.288 58.809 850.394 850.394" xml:space="preserve">
<g>
	<path fill="#080103" d="M855.711,551.102c0.181-0.19,0.358-0.381,0.533-0.575c0.161-0.178,0.32-0.358,0.476-0.539
		c0.177-0.205,0.35-0.412,0.52-0.62c0.144-0.177,0.286-0.355,0.426-0.535c0.169-0.217,0.334-0.435,0.496-0.656
		c0.132-0.18,0.261-0.361,0.389-0.543c0.157-0.224,0.311-0.448,0.46-0.675c0.123-0.186,0.243-0.373,0.361-0.561
		c0.143-0.227,0.284-0.456,0.42-0.686c0.115-0.193,0.226-0.388,0.335-0.583c0.129-0.229,0.255-0.459,0.377-0.69
		c0.107-0.203,0.21-0.406,0.312-0.611c0.114-0.229,0.226-0.458,0.334-0.689c0.099-0.212,0.194-0.425,0.287-0.639
		c0.1-0.227,0.198-0.455,0.292-0.684c0.091-0.222,0.177-0.445,0.262-0.668c0.086-0.225,0.17-0.449,0.25-0.676
		c0.082-0.231,0.159-0.463,0.235-0.696c0.073-0.222,0.145-0.445,0.212-0.669c0.072-0.239,0.138-0.479,0.204-0.719
		c0.06-0.22,0.12-0.441,0.176-0.662c0.061-0.246,0.117-0.492,0.172-0.739c0.049-0.219,0.098-0.438,0.142-0.658
		c0.05-0.25,0.094-0.501,0.137-0.752c0.038-0.219,0.076-0.438,0.109-0.657c0.038-0.252,0.07-0.505,0.101-0.757
		c0.028-0.221,0.056-0.442,0.078-0.663c0.026-0.252,0.045-0.504,0.064-0.756c0.017-0.223,0.035-0.446,0.047-0.67
		c0.014-0.251,0.02-0.501,0.028-0.752c0.007-0.226,0.014-0.452,0.016-0.678c0.002-0.248-0.003-0.496-0.008-0.743
		c-0.004-0.229-0.007-0.459-0.016-0.688c-0.01-0.243-0.027-0.485-0.043-0.728c-0.015-0.234-0.029-0.468-0.049-0.702
		c-0.021-0.236-0.049-0.472-0.075-0.708c-0.027-0.239-0.052-0.479-0.085-0.718c-0.031-0.229-0.07-0.457-0.107-0.686
		c-0.039-0.244-0.076-0.487-0.121-0.73c-0.041-0.223-0.09-0.444-0.136-0.666c-0.052-0.247-0.101-0.495-0.159-0.741
		c-0.051-0.215-0.109-0.428-0.164-0.642c-0.065-0.251-0.128-0.502-0.199-0.751c-0.06-0.208-0.127-0.415-0.192-0.622
		c-0.078-0.251-0.154-0.503-0.239-0.753c-0.069-0.202-0.145-0.402-0.219-0.603c-0.092-0.253-0.181-0.506-0.28-0.756
		c-0.077-0.196-0.163-0.389-0.245-0.584c-0.105-0.251-0.208-0.503-0.321-0.752c-0.088-0.194-0.184-0.384-0.276-0.576
		c-0.118-0.246-0.233-0.493-0.357-0.737c-0.099-0.193-0.206-0.382-0.309-0.572c-0.129-0.238-0.255-0.478-0.39-0.714
		c-0.113-0.196-0.235-0.388-0.353-0.581c-0.137-0.226-0.271-0.454-0.414-0.677c-0.13-0.202-0.271-0.4-0.406-0.6
		c-0.142-0.21-0.28-0.421-0.429-0.628c-0.155-0.216-0.321-0.427-0.482-0.64c-0.14-0.185-0.275-0.372-0.42-0.555
		c-0.198-0.25-0.409-0.493-0.616-0.737c-0.119-0.14-0.232-0.284-0.354-0.422c-0.335-0.381-0.682-0.755-1.039-1.123L425.274,67.876
		c-11.56-11.869-30.554-12.119-42.422-0.557c-11.869,11.561-12.118,30.554-0.557,42.422l70.074,71.939l-319.33,327.829
		c-11.347,11.648-11.347,30.217,0,41.865l339.72,348.761c5.647,5.798,13.396,9.067,21.49,9.067s15.843-3.27,21.49-9.067
		l339.721-348.761C855.545,551.285,855.625,551.192,855.711,551.102z M708.813,444.951l-426.909-2.28l212.344-217.995
		L656.92,391.677L708.813,444.951z"/>
	<path fill="#080103" d="M876.082,624.093c-4.151-7.51-15.412-6.035-17.428,2.306c-4.388,18.147-3.563,39.756-26.291,56.423
		c-40.541,29.73-10.811,117.568,40.541,89.19C934.642,733.792,896.028,660.182,876.082,624.093z"/>
</g>
</svg>
