<?xml version="1.0" encoding="utf-8"?>
<!-- Generator: Adobe Illustrator 22.1.0, SVG Export Plug-In . SVG Version: 6.00 Build 0)  -->
<svg version="1.1" id="图形" xmlns="http://www.w3.org/2000/svg" xmlns:xlink="http://www.w3.org/1999/xlink" x="0px" y="0px"
	 viewBox="90.288 58.809 850.394 850.394" enable-background="new 90.288 58.809 850.394 850.394" xml:space="preserve">
<g>
	<path d="M910.682,453.555H431.337c-16.568,0-30,13.432-30,30s13.432,30,30,30h479.345c16.568,0,30-13.432,30-30
		S927.25,453.555,910.682,453.555z"/>
	<path d="M431.337,213.907h479.345c16.568,0,30-13.432,30-30s-13.432-30-30-30H431.337c-16.568,0-30,13.432-30,30
		S414.768,213.907,431.337,213.907z"/>
	<path d="M910.682,753.203H431.337c-16.568,0-30,13.432-30,30s13.432,30,30,30h479.345c16.568,0,30-13.432,30-30
		S927.25,753.203,910.682,753.203z"/>
	<path d="M134.986,175.62l52.727-29.633v160.867c0,16.568,13.432,30,30,30s30-13.432,30-30V94.713
		c0-10.656-5.653-20.512-14.85-25.894c-9.197-5.381-20.558-5.48-29.848-0.259l-97.425,54.756
		c-14.444,8.118-19.572,26.407-11.455,40.851C102.253,178.61,120.543,183.739,134.986,175.62z"/>
	<path d="M253.44,456.095c16.568,0,30-13.432,30-30s-13.432-30-30-30H120.288c-16.568,0-30,13.432-30,30s13.432,30,30,30h36.576
		v72.589h-36.576c-16.568,0-30,13.432-30,30s13.432,30,30,30H253.44c16.568,0,30-13.432,30-30s-13.432-30-30-30h-36.576v-72.589
		H253.44z"/>
	<path d="M253.44,661.524H120.288c-16.568,0-30,13.432-30,30s13.432,30,30,30H223.44v121.979H120.288c-16.568,0-30,13.432-30,30
		s13.432,30,30,30H253.44c15.567,0,28.363-11.858,29.853-27.034h0.147V691.524C283.44,674.955,270.008,661.524,253.44,661.524z"/>
</g>
</svg>
