<?xml version="1.0" encoding="utf-8"?>
<!-- Generator: Adobe Illustrator 22.1.0, SVG Export Plug-In . SVG Version: 6.00 Build 0)  -->
<svg version="1.1" id="图形" xmlns="http://www.w3.org/2000/svg" xmlns:xlink="http://www.w3.org/1999/xlink" x="0px" y="0px"
	 viewBox="90.288 58.809 850.394 850.394" enable-background="new 90.288 58.809 850.394 850.394" xml:space="preserve">
<g>
	<path fill="#090204" d="M910.682,166.217H435.055c-16.568,0-30,13.432-30,30v123.312c0,16.568,13.432,30,30,30s30-13.432,30-30
		v-93.312h177.814v515.136h-88.424c-16.568,0-30,13.432-30,30s13.432,30,30,30h236.847c16.568,0,30-13.432,30-30s-13.432-30-30-30
		h-88.423V226.217h177.813v93.312c0,16.568,13.432,30,30,30s30-13.432,30-30V196.217
		C940.682,179.648,927.25,166.217,910.682,166.217z"/>
	<path fill="#090204" d="M230.977,166.217c-16.568,0-30,13.432-30,30v502.887l-59.513-59.308
		c-11.736-11.696-30.732-11.662-42.426,0.073c-11.695,11.736-11.663,30.731,0.074,42.427l110.689,110.307
		c5.736,5.716,13.393,8.751,21.183,8.751c3.873,0,7.779-0.75,11.498-2.295c11.198-4.649,18.496-15.582,18.496-27.706V196.217
		C260.977,179.648,247.546,166.217,230.977,166.217z"/>
</g>
</svg>
