<?xml version="1.0" encoding="utf-8"?>
<!-- Generator: Adobe Illustrator 22.1.0, SVG Export Plug-In . SVG Version: 6.00 Build 0)  -->
<svg version="1.1" id="图形" xmlns="http://www.w3.org/2000/svg" xmlns:xlink="http://www.w3.org/1999/xlink" x="0px" y="0px"
	 viewBox="90.288 58.809 850.394 850.394" enable-background="new 90.288 58.809 850.394 850.394" xml:space="preserve">
<g>
	<path d="M304.714,637.566c-85.151,0-154.426-68.331-154.426-152.322c0-83.992,69.275-152.324,154.426-152.324h114.089
		c85.149,0,154.424,68.332,154.424,152.324c0,16.568,13.432,30,30,30s30-13.432,30-30c0-56.778-22.348-110.141-62.925-150.256
		c-40.486-40.025-94.289-62.067-151.499-62.067H304.714c-57.21,0-111.014,22.042-151.5,62.067
		c-40.579,40.116-62.926,93.478-62.926,150.256s22.348,110.14,62.926,150.256c40.486,40.024,94.29,62.066,151.5,62.066
		c16.568,0,30-13.432,30-30S321.282,637.566,304.714,637.566z"/>
	<path d="M877.756,332.512c-40.486-40.024-94.29-62.066-151.5-62.066c-16.568,0-30,13.432-30,30s13.432,30,30,30
		c85.15,0,154.426,68.331,154.426,152.322c0,83.992-69.275,152.324-154.426,152.324h-114.09
		c-85.149,0-154.424-68.332-154.424-152.324c0-16.568-13.432-30-30-30s-30,13.432-30,30c0,117.076,96.19,212.324,214.424,212.324
		h114.09c57.21,0,111.014-22.043,151.5-62.067c40.578-40.116,62.926-93.479,62.926-150.257S918.334,372.628,877.756,332.512z"/>
</g>
</svg>
