<?xml version="1.0" encoding="utf-8"?>
<!-- Generator: Adobe Illustrator 22.1.0, SVG Export Plug-In . SVG Version: 6.00 Build 0)  -->
<svg version="1.1" id="图形" xmlns="http://www.w3.org/2000/svg" xmlns:xlink="http://www.w3.org/1999/xlink" x="0px" y="0px"
	 viewBox="90.288 58.809 850.394 850.394" enable-background="new 90.288 58.809 850.394 850.394" xml:space="preserve">
<g>
	<path d="M284.288,454.006c-16.568,0-30,13.432-30,30s13.432,30,30,30h462.394c16.568,0,30-13.431,30-30s-13.432-30-30-30H284.288z"
		/>
	<path d="M120.288,219.374h790.394c16.568,0,30-13.432,30-30s-13.432-30-30-30H120.288c-16.568,0-30,13.432-30,30
		S103.72,219.374,120.288,219.374z"/>
	<path d="M910.682,748.637H120.288c-16.568,0-30,13.432-30,30s13.432,30,30,30h790.394c16.568,0,30-13.432,30-30
		S927.25,748.637,910.682,748.637z"/>
</g>
</svg>
