<?xml version="1.0" encoding="utf-8"?>
<!-- Generator: Adobe Illustrator 22.1.0, SVG Export Plug-In . SVG Version: 6.00 Build 0)  -->
<svg version="1.1" id="图形" xmlns="http://www.w3.org/2000/svg" xmlns:xlink="http://www.w3.org/1999/xlink" x="0px" y="0px"
	 viewBox="90.288 58.809 850.394 850.394" enable-background="new 90.288 58.809 850.394 850.394" xml:space="preserve">
<g>
	<polygon fill="#080103" points="435.651,523.311 601.711,523.311 521.674,312.434 	"/>
	<path fill="#080103" d="M909.485,60.006h-788c-16.568,0-30,13.432-30,30v788c0,16.568,13.432,30,30,30h788
		c16.568,0,30-13.432,30-30v-788C939.485,73.437,926.053,60.006,909.485,60.006z M725.727,765.518
		c-3.504,1.33-7.103,1.96-10.64,1.96c-12.103,0.001-23.504-7.376-28.054-19.362l-62.55-164.805H411.175l-67.509,165.49
		c-6.258,15.342-23.767,22.706-39.109,16.446c-15.341-6.258-22.704-23.768-16.446-39.108l75.082-184.055
		c0.08-0.197,0.157-0.395,0.241-0.59l131.47-322.284c4.609-11.299,15.597-18.668,27.776-18.668c0.123,0,0.246,0,0.371,0.002
		c12.325,0.151,23.305,7.828,27.679,19.352L673.21,542.603c0.068,0.178,0.138,0.354,0.203,0.534l69.717,183.688
		C749.008,742.315,741.217,759.639,725.727,765.518z"/>
</g>
</svg>
