<?xml version="1.0" encoding="utf-8"?>
<!-- Generator: Adobe Illustrator 22.1.0, SVG Export Plug-In . SVG Version: 6.00 Build 0)  -->
<svg version="1.1" id="图形" xmlns="http://www.w3.org/2000/svg" xmlns:xlink="http://www.w3.org/1999/xlink" x="0px" y="0px"
	 viewBox="90.288 58.809 850.394 850.394" enable-background="new 90.288 58.809 850.394 850.394" xml:space="preserve">
<path d="M837.84,436.94c-49.486-51.568-115.376-79.967-185.532-79.967H217.051l234.525-245.438
	c11.446-11.979,11.015-30.969-0.964-42.416c-11.979-11.446-30.969-11.015-42.416,0.964L125.201,366.247
	c-0.018,0.018-0.034,0.038-0.051,0.057c-0.095,0.1-0.186,0.202-0.279,0.303c-0.154,0.166-0.304,0.335-0.454,0.504
	c-0.094,0.107-0.193,0.211-0.286,0.318c-0.09,0.105-0.176,0.211-0.265,0.317c-0.124,0.148-0.244,0.299-0.365,0.45
	c-0.03,0.038-0.061,0.075-0.092,0.113c-0.078,0.098-0.161,0.194-0.238,0.293c-0.082,0.105-0.16,0.212-0.24,0.318
	c-0.095,0.125-0.185,0.253-0.278,0.38c-0.058,0.08-0.117,0.159-0.175,0.239c-0.067,0.093-0.137,0.184-0.203,0.277
	c-0.071,0.102-0.139,0.206-0.209,0.308c-0.074,0.109-0.144,0.22-0.217,0.33c-0.065,0.099-0.131,0.197-0.194,0.296
	c-0.069,0.107-0.143,0.212-0.21,0.32c-0.058,0.093-0.114,0.188-0.171,0.282c-0.067,0.11-0.13,0.223-0.196,0.334
	c-0.052,0.088-0.104,0.176-0.155,0.264c-0.079,0.136-0.163,0.271-0.24,0.408c-0.045,0.081-0.088,0.164-0.133,0.246
	c-0.073,0.134-0.142,0.272-0.213,0.407c-0.023,0.044-0.046,0.088-0.069,0.131c-0.092,0.178-0.19,0.354-0.279,0.533
	c-0.033,0.068-0.064,0.136-0.097,0.204c-0.084,0.173-0.161,0.349-0.242,0.523c-0.094,0.205-0.194,0.408-0.283,0.614
	c-0.024,0.054-0.045,0.109-0.068,0.164c-0.088,0.206-0.169,0.415-0.252,0.623c-0.077,0.193-0.159,0.384-0.232,0.578
	c-0.016,0.042-0.03,0.084-0.046,0.127c-0.089,0.24-0.171,0.483-0.254,0.726c-0.06,0.176-0.125,0.351-0.182,0.528
	c-0.011,0.034-0.02,0.068-0.031,0.103c-0.085,0.267-0.162,0.537-0.24,0.807c-0.046,0.162-0.097,0.323-0.141,0.485
	c-0.009,0.032-0.016,0.064-0.024,0.095c-0.074,0.28-0.141,0.562-0.207,0.845c-0.036,0.156-0.077,0.31-0.111,0.466
	c-0.008,0.036-0.014,0.073-0.022,0.11c-0.059,0.278-0.112,0.559-0.163,0.839c-0.029,0.156-0.062,0.311-0.088,0.468
	c-0.008,0.049-0.014,0.098-0.022,0.147c-0.043,0.264-0.08,0.53-0.116,0.797c-0.022,0.16-0.048,0.319-0.067,0.48
	c-0.008,0.071-0.013,0.142-0.021,0.212c-0.027,0.243-0.049,0.487-0.071,0.732c-0.014,0.161-0.033,0.321-0.044,0.482
	c-0.007,0.1-0.009,0.201-0.015,0.301c-0.013,0.223-0.024,0.446-0.032,0.67c-0.006,0.153-0.017,0.306-0.02,0.46
	c-0.003,0.131,0,0.262-0.001,0.393c-0.001,0.108-0.008,0.214-0.008,0.322s0.007,0.214,0.008,0.322
	c0.001,0.131-0.002,0.262,0.001,0.393c0.004,0.153,0.015,0.306,0.02,0.46c0.009,0.224,0.019,0.447,0.032,0.67
	c0.006,0.1,0.008,0.201,0.015,0.301c0.011,0.161,0.03,0.321,0.044,0.482c0.021,0.245,0.043,0.489,0.071,0.732
	c0.008,0.071,0.012,0.142,0.021,0.212c0.019,0.16,0.045,0.32,0.067,0.48c0.036,0.266,0.073,0.532,0.116,0.797
	c0.008,0.049,0.014,0.098,0.022,0.147c0.026,0.156,0.059,0.312,0.088,0.468c0.052,0.281,0.104,0.561,0.163,0.839
	c0.008,0.036,0.014,0.073,0.022,0.11c0.034,0.156,0.075,0.311,0.111,0.466c0.066,0.283,0.133,0.565,0.207,0.845
	c0.008,0.032,0.015,0.064,0.024,0.095c0.044,0.163,0.094,0.323,0.141,0.485c0.078,0.27,0.155,0.54,0.24,0.807
	c0.011,0.034,0.02,0.068,0.031,0.103c0.057,0.177,0.122,0.352,0.182,0.528c0.083,0.243,0.165,0.486,0.254,0.726
	c0.016,0.042,0.03,0.085,0.046,0.127c0.073,0.194,0.155,0.386,0.233,0.579c0.083,0.207,0.164,0.416,0.252,0.621
	c0.023,0.055,0.045,0.11,0.068,0.164c0.09,0.207,0.189,0.41,0.284,0.615c0.081,0.174,0.158,0.35,0.241,0.522
	c0.033,0.068,0.064,0.136,0.097,0.204c0.089,0.179,0.186,0.355,0.279,0.533c0.023,0.044,0.046,0.088,0.069,0.131
	c0.071,0.136,0.14,0.273,0.213,0.407c0.045,0.082,0.087,0.164,0.133,0.246c0.077,0.137,0.161,0.272,0.24,0.408
	c0.051,0.088,0.103,0.176,0.155,0.264c0.066,0.111,0.129,0.224,0.196,0.334c0.057,0.094,0.112,0.188,0.171,0.282
	c0.068,0.108,0.141,0.213,0.21,0.32c0.064,0.099,0.129,0.197,0.194,0.296c0.072,0.11,0.143,0.221,0.217,0.33
	c0.07,0.103,0.137,0.206,0.209,0.308c0.065,0.093,0.136,0.184,0.203,0.277c0.057,0.08,0.116,0.159,0.175,0.239
	c0.093,0.127,0.184,0.255,0.278,0.38c0.08,0.106,0.158,0.213,0.24,0.318c0.077,0.099,0.159,0.195,0.238,0.293
	c0.03,0.038,0.061,0.075,0.092,0.113c0.121,0.151,0.241,0.302,0.365,0.45c0.088,0.106,0.175,0.212,0.265,0.317
	c0.093,0.108,0.191,0.212,0.286,0.318c0.15,0.169,0.3,0.338,0.454,0.504c0.093,0.101,0.184,0.203,0.279,0.303
	c0.018,0.019,0.034,0.038,0.051,0.057l282.996,296.164c5.895,6.169,13.787,9.274,21.694,9.274c7.448,0,14.911-2.758,20.721-8.311
	c11.979-11.446,12.411-30.436,0.964-42.415L217.051,416.972h435.257c111.257,0,201.771,94.886,201.771,211.518v248.712
	c0,16.568,13.432,30,30,30s30-13.432,30-30V628.49C914.079,556.198,887.003,488.17,837.84,436.94z"/>
</svg>
