<?xml version="1.0" encoding="utf-8"?>
<!-- Generator: Adobe Illustrator 22.1.0, SVG Export Plug-In . SVG Version: 6.00 Build 0)  -->
<svg version="1.1" id="图形" xmlns="http://www.w3.org/2000/svg" xmlns:xlink="http://www.w3.org/1999/xlink" x="0px" y="0px"
	 viewBox="90.288 58.809 850.394 850.394" enable-background="new 90.288 58.809 850.394 850.394" xml:space="preserve">
<g>
	<path d="M910.682,274.414H436.446c-16.568,0-30,13.432-30,30s13.432,30,30,30h474.236c16.568,0,30-13.432,30-30
		S927.25,274.414,910.682,274.414z"/>
	<path d="M910.682,454.006H436.446c-16.568,0-30,13.432-30,30s13.432,30,30,30h474.236c16.568,0,30-13.432,30-30
		S927.25,454.006,910.682,454.006z"/>
	<path d="M120.288,154.823h790.394c16.568,0,30-13.432,30-30s-13.432-30-30-30H120.288c-16.568,0-30,13.432-30,30
		S103.72,154.823,120.288,154.823z"/>
	<path d="M910.682,813.189H120.288c-16.568,0-30,13.432-30,30s13.432,30,30,30h790.394c16.568,0,30-13.432,30-30
		S927.25,813.189,910.682,813.189z"/>
	<path d="M910.682,633.597H436.446c-16.568,0-30,13.432-30,30s13.432,30,30,30h474.236c16.568,0,30-13.432,30-30
		S927.25,633.597,910.682,633.597z"/>
	<path d="M241.883,638.168c1.768,1.753,4.123,2.683,6.518,2.683c1.199,0,2.408-0.232,3.558-0.712
		c3.448-1.438,5.695-4.807,5.695-8.543v-295.18c0-3.736-2.247-7.105-5.695-8.543c-3.449-1.436-7.422-0.66-10.076,1.971
		L93.027,477.434c-1.753,1.738-2.739,4.104-2.739,6.572s0.986,4.834,2.739,6.572L241.883,638.168z"/>
</g>
</svg>
