<?xml version="1.0" encoding="utf-8"?>
<!-- Generator: Adobe Illustrator 22.1.0, SVG Export Plug-In . SVG Version: 6.00 Build 0)  -->
<svg version="1.1" id="图形" xmlns="http://www.w3.org/2000/svg" xmlns:xlink="http://www.w3.org/1999/xlink" x="0px" y="0px"
	 viewBox="90.288 58.809 850.394 850.394" enable-background="new 90.288 58.809 850.394 850.394" xml:space="preserve">
<path fill="#080103" d="M925.473,452.482L722.136,280.767c-0.44-0.372-0.892-0.731-1.353-1.078
	c-12.267-9.202-28.431-10.696-42.19-3.894c-13.849,6.851-22.451,20.694-22.451,36.125v94.268H120.288
	c-12.15,0-23.101,7.329-27.734,18.562c-1.803,4.373-2.511,9.001-2.194,13.528c0.227,9.12,0.23,81.85,0.005,91.374
	c-0.62,8.568,2.464,17.175,8.774,23.446c5.761,5.727,13.51,8.836,21.425,8.723h535.578v94.269c0,15.432,8.603,29.273,22.438,36.118
	c5.547,2.747,11.751,4.199,17.943,4.199c8.702,0,17.323-2.875,24.274-8.097c0.456-0.343,0.903-0.698,1.339-1.067l203.339-171.716
	c9.543-7.604,15.207-19.301,15.207-31.522C940.682,471.782,935.017,460.085,925.473,452.482z M716.142,613.774v-81.952
	c0-16.568-13.432-30-30-30H150.527c0.003-5.199,0.002-11.204,0.002-18.15c0-6.116-0.006-12.027-0.016-17.482l535.628,0
	c16.568,0,30-13.432,30-30v-81.951l153.665,129.768L716.142,613.774z"/>
</svg>
