<?xml version="1.0" encoding="utf-8"?>
<!-- Generator: Adobe Illustrator 22.1.0, SVG Export Plug-In . SVG Version: 6.00 Build 0)  -->
<svg version="1.1" id="图形" xmlns="http://www.w3.org/2000/svg" xmlns:xlink="http://www.w3.org/1999/xlink" x="0px" y="0px"
	 viewBox="90.288 58.809 850.394 850.394" enable-background="new 90.288 58.809 850.394 850.394" xml:space="preserve">
<path d="M910.682,58.809H684.91c-16.568,0-30,13.432-30,30v213.818L334.141,623.396H120.288c-16.568,0-30,13.432-30,30v225.807
	c0,16.568,13.432,30,30,30H346.06c16.568,0,30-13.432,30-30V666.329l321.713-321.713h212.91c16.568,0,30-13.432,30-30V88.809
	C940.682,72.24,927.25,58.809,910.682,58.809z M316.06,849.202H150.288V683.396H316.06V849.202z M880.682,284.616H714.91V118.809
	h165.772V284.616z"/>
</svg>
