<?xml version="1.0" encoding="utf-8"?>
<!-- Generator: Adobe Illustrator 22.1.0, SVG Export Plug-In . SVG Version: 6.00 Build 0)  -->
<svg version="1.1" id="图形" xmlns="http://www.w3.org/2000/svg" xmlns:xlink="http://www.w3.org/1999/xlink" x="0px" y="0px"
	 viewBox="90.288 58.809 850.394 850.394" enable-background="new 90.288 58.809 850.394 850.394" xml:space="preserve">
<g>
	<path d="M515.485,909.203c-46.964,0-85.038-38.074-85.038-85.04c0-46.964,38.074-85.039,85.038-85.039
		c46.967,0,85.039,38.074,85.039,85.039C600.523,871.128,562.452,909.203,515.485,909.203z"/>
	<path d="M515.485,569.045c-46.965,0-85.039-38.072-85.039-85.041c0-46.965,38.075-85.039,85.039-85.039
		c46.968,0,85.039,38.075,85.039,85.039C600.524,530.973,562.453,569.045,515.485,569.045z"/>
	<path d="M515.484,228.882c-46.966,0-85.039-38.068-85.039-85.036c0-46.969,38.073-85.037,85.039-85.037
		c46.966,0,85.04,38.069,85.04,85.037C600.524,190.815,562.45,228.882,515.484,228.882z"/>
</g>
</svg>
