<?xml version="1.0" encoding="utf-8"?>
<!-- Generator: Adobe Illustrator 22.1.0, SVG Export Plug-In . SVG Version: 6.00 Build 0)  -->
<svg version="1.1" id="图形" xmlns="http://www.w3.org/2000/svg" xmlns:xlink="http://www.w3.org/1999/xlink" x="0px" y="0px"
	 viewBox="90.288 58.809 850.394 850.394" enable-background="new 90.288 58.809 850.394 850.394" xml:space="preserve">
<g>
	<path d="M274.258,683.452c15.305,6.348,32.856-0.922,39.2-16.229l77.68-187.443h248.15l72.007,186.75
		c4.593,11.911,15.953,19.216,27.998,19.215c3.587,0,7.238-0.648,10.786-2.017c15.459-5.961,23.159-23.325,17.198-38.784
		l-79.198-205.402c-0.061-0.169-0.129-0.334-0.193-0.501L548.682,78.016c-4.413-11.446-15.352-19.052-27.618-19.205
		c-0.126-0.002-0.25-0.002-0.375-0.002c-12.118,0-23.064,7.298-27.712,18.515L343.55,437.89c-0.088,0.203-0.171,0.409-0.255,0.615
		l-85.267,205.749C251.686,659.56,258.952,677.11,274.258,683.452z M519.687,169.593l96.467,250.188h-200.15L519.687,169.593z"/>
	<rect x="101.154" y="789.203" width="828.662" height="120"/>
</g>
</svg>
