<?xml version="1.0" encoding="utf-8"?>
<!-- Generator: Adobe Illustrator 22.1.0, SVG Export Plug-In . SVG Version: 6.00 Build 0)  -->
<svg version="1.1" id="图形" xmlns="http://www.w3.org/2000/svg" xmlns:xlink="http://www.w3.org/1999/xlink" x="0px" y="0px"
	 viewBox="90.288 58.809 850.394 850.394" enable-background="new 90.288 58.809 850.394 850.394" xml:space="preserve">
<path fill="#080103" d="M910.682,58.809H684.91c-16.568,0-30,13.432-30,30v83.652c-46.112,4.569-82.121,20.184-109.486,47.388
	c-33.218,33.022-51.868,81.642-57.016,148.638c-1.085,14.126-1.474,264.068-1.474,266.542c0,31.014-8.801,54.149-26.904,70.731
	c-23.974,21.958-59.516,28.487-83.97,30.21v-82.574c0-16.568-13.432-30-30-30H120.288c-16.568,0-30,13.432-30,30v225.807
	c0,16.568,13.432,30,30,30H346.06c16.568,0,30-13.432,30-30v-83.139c33.604-1.943,86.013-11.007,124.205-45.791
	c30.968-28.206,46.67-66.979,46.67-115.243c0-29.715,0.529-247.649,1.309-262.084c6.842-88.709,38.345-131.183,106.667-140.101
	v81.773c0,16.568,13.432,30,30,30h225.772c16.568,0,30-13.432,30-30V88.809C940.682,72.24,927.25,58.809,910.682,58.809z
	 M150.288,849.202V683.396H316.06v79.91c-0.168,1.838-0.159,3.65,0,5.425v80.472H150.288z M880.682,284.616H714.91v-82.623
	c0.01-0.321,0.024-0.641,0.024-0.965s-0.014-0.644-0.024-0.965v-81.255h165.772V284.616z"/>
</svg>
