<?xml version="1.0" encoding="utf-8"?>
<!-- Generator: Adobe Illustrator 22.1.0, SVG Export Plug-In . SVG Version: 6.00 Build 0)  -->
<svg version="1.1" id="图形" xmlns="http://www.w3.org/2000/svg" xmlns:xlink="http://www.w3.org/1999/xlink" x="0px" y="0px"
	 viewBox="90.288 58.809 850.394 850.394" enable-background="new 90.288 58.809 850.394 850.394" xml:space="preserve">
<g>
	<path d="M910.682,453.588H408.64c-16.569,0-30,13.432-30,30s13.431,30,30,30h502.042c16.568,0,30-13.432,30-30
		S927.25,453.588,910.682,453.588z"/>
	<path d="M408.64,198.42h502.042c16.568,0,30-13.432,30-30s-13.432-30-30-30H408.64c-16.569,0-30,13.432-30,30
		S392.071,198.42,408.64,198.42z"/>
	<path d="M910.682,768.758H408.64c-16.569,0-30,13.432-30,30s13.431,30,30,30h502.042c16.568,0,30-13.432,30-30
		S927.25,768.758,910.682,768.758z"/>
	<ellipse transform="matrix(0.9998 -0.02 0.02 0.9998 -9.631 3.6011)" cx="175.327" cy="483.589" rx="85.039" ry="85.04"/>
	<ellipse transform="matrix(0.9999 -0.0169 0.0169 0.9999 -2.8282 2.9946)" cx="175.327" cy="168.42" rx="85.039" ry="85.04"/>
	<path d="M175.327,714.551c-46.967,0-85.039,38.074-85.039,85.041c0,46.965,38.072,85.039,85.039,85.039
		s85.039-38.074,85.039-85.039C260.367,752.625,222.294,714.551,175.327,714.551z"/>
</g>
</svg>
