<?xml version="1.0" encoding="utf-8"?>
<!-- Generator: Adobe Illustrator 22.1.0, SVG Export Plug-In . SVG Version: 6.00 Build 0)  -->
<svg version="1.1" id="图形" xmlns="http://www.w3.org/2000/svg" xmlns:xlink="http://www.w3.org/1999/xlink" x="0px" y="0px"
	 viewBox="90.288 58.809 850.394 850.394" enable-background="new 90.288 58.809 850.394 850.394" xml:space="preserve">
<path d="M883.988,58.809h-737.01c-31.18,0-56.69,25.51-56.69,56.69v737.01c0,31.18,25.51,56.69,56.69,56.69h737.01
	c31.18,0,56.69-25.51,56.69-56.69v-737.01C940.678,84.319,915.168,58.809,883.988,58.809z M790.258,342.409l-322.59,325.43
	c-5.64,5.69-13.31,8.88-21.31,8.88s-15.67-3.19-21.31-8.88l-184.33-185.96c-11.67-11.77-11.58-30.76,0.18-42.42
	c11.77-11.67,30.77-11.58,42.43,0.18l163.03,164.47l301.29-303.94c11.66-11.77,30.66-11.85,42.42-0.19
	C801.838,311.649,801.918,330.639,790.258,342.409z"/>
</svg>
