<?xml version="1.0" encoding="utf-8"?>
<!-- Generator: Adobe Illustrator 22.1.0, SVG Export Plug-In . SVG Version: 6.00 Build 0)  -->
<svg version="1.1" id="图形" xmlns="http://www.w3.org/2000/svg" xmlns:xlink="http://www.w3.org/1999/xlink" x="0px" y="0px"
	 viewBox="90.288 58.809 850.394 850.394" enable-background="new 90.288 58.809 850.394 850.394" xml:space="preserve">
<path d="M674.738,484.009c17.27-9.87,33.35-22.04,47.83-36.36c43.54-43.02,67.52-100.24,67.52-161.13
	c0-60.89-23.98-118.12-67.52-161.14c-43.44-42.93-101.17-66.57-162.56-66.57h-289.12c-16.57,0-30,13.43-30,30v790.39
	c0,16.57,13.43,30,30,30h289.12c61.39,0,119.12-23.64,162.56-66.56c43.54-43.03,67.52-100.25,67.52-161.14
	s-23.98-118.12-67.52-161.14C708.088,506.039,692.008,493.869,674.738,484.009z M300.888,118.809h259.12
	c93.78,0,170.08,75.23,170.08,167.71c0,89.39-71.31,162.68-160.78,167.45c-3.09-0.12-6.19-0.18-9.3-0.18
	c-1.19,0-2.37,0.08-3.53,0.22h-255.59V118.809z M560.008,849.199h-259.12v-335.19h255.58c1.17,0.13,2.35,0.21,3.54,0.21
	c3.11,0,6.21-0.06,9.3-0.18c89.47,4.78,160.78,78.06,160.78,167.46C730.088,773.969,653.788,849.199,560.008,849.199z"/>
</svg>
