<?xml version="1.0" encoding="utf-8"?>
<!-- Generator: Adobe Illustrator 22.1.0, SVG Export Plug-In . SVG Version: 6.00 Build 0)  -->
<svg version="1.1" id="图形" xmlns="http://www.w3.org/2000/svg" xmlns:xlink="http://www.w3.org/1999/xlink" x="0px" y="0px"
	 viewBox="90.288 58.809 850.394 850.394" enable-background="new 90.288 58.809 850.394 850.394" xml:space="preserve">
<g>
	<path d="M120.481,584.182h281.197c16.568,0,30-13.432,30-30s-13.432-30-30-30H120.481c-16.568,0-30,13.432-30,30
		S103.913,584.182,120.481,584.182z"/>
	<path d="M599.485,554.182c0,16.568,13.432,30,30,30h281.197c16.568,0,30-13.432,30-30s-13.432-30-30-30H629.485
		C612.916,524.182,599.485,537.614,599.485,554.182z"/>
	<path d="M549.701,251.312l178.24,178.153c11.719,11.714,30.712,11.708,42.427-0.01c11.713-11.718,11.708-30.713-0.011-42.426
		L540.909,157.692c-0.062-0.062-0.127-0.119-0.19-0.181c-0.17-0.167-0.342-0.329-0.515-0.491c-0.122-0.114-0.241-0.232-0.365-0.345
		c-0.084-0.075-0.169-0.147-0.253-0.221c-0.186-0.164-0.373-0.325-0.562-0.484c-0.099-0.083-0.195-0.169-0.295-0.251
		c-0.107-0.088-0.217-0.173-0.325-0.26c-0.192-0.153-0.386-0.304-0.581-0.452c-0.081-0.062-0.161-0.125-0.243-0.186
		c-0.134-0.1-0.27-0.196-0.405-0.293c-0.192-0.137-0.384-0.273-0.578-0.405c-0.07-0.047-0.139-0.095-0.209-0.142
		c-0.161-0.108-0.324-0.213-0.486-0.317c-0.184-0.118-0.368-0.236-0.554-0.35c-0.066-0.041-0.132-0.08-0.198-0.12
		c-0.186-0.112-0.373-0.22-0.561-0.327c-0.172-0.098-0.343-0.197-0.516-0.292c-0.069-0.037-0.139-0.074-0.208-0.111
		c-0.207-0.111-0.415-0.216-0.624-0.322c-0.157-0.08-0.313-0.163-0.471-0.239c-0.076-0.037-0.154-0.072-0.231-0.108
		c-0.225-0.107-0.453-0.207-0.68-0.308c-0.14-0.062-0.278-0.129-0.419-0.189c-0.088-0.037-0.177-0.072-0.265-0.108
		c-0.21-0.087-0.422-0.168-0.633-0.25c-0.252-0.098-0.504-0.195-0.759-0.286c-0.185-0.066-0.372-0.127-0.558-0.189
		c-0.284-0.095-0.567-0.189-0.854-0.275c-0.164-0.05-0.33-0.094-0.495-0.141c-0.307-0.087-0.615-0.173-0.926-0.25
		c-0.154-0.038-0.31-0.071-0.465-0.107c-0.321-0.074-0.641-0.147-0.965-0.211c-0.157-0.031-0.315-0.057-0.473-0.085
		c-0.319-0.057-0.638-0.115-0.961-0.162c-0.186-0.027-0.372-0.047-0.558-0.071c-0.295-0.037-0.588-0.077-0.885-0.106
		c-0.255-0.025-0.511-0.04-0.766-0.058c-0.224-0.016-0.447-0.038-0.672-0.049c-0.009,0-0.019-0.001-0.029-0.001
		c-0.492-0.024-0.984-0.037-1.477-0.037h-0.003h-0.003c-0.47,0-0.941,0.012-1.411,0.034c-0.022,0.001-0.044,0.003-0.066,0.004
		c-0.167,0.008-0.332,0.024-0.499,0.035c-0.282,0.018-0.564,0.035-0.845,0.061c-0.039,0.004-0.078,0.008-0.117,0.012
		c-0.206,0.02-0.411,0.048-0.616,0.072c-0.225,0.027-0.449,0.051-0.673,0.083c-0.053,0.008-0.105,0.015-0.157,0.023
		c-0.217,0.032-0.432,0.071-0.648,0.107c-0.198,0.033-0.396,0.065-0.593,0.103c-0.065,0.013-0.131,0.025-0.196,0.038
		c-0.213,0.042-0.424,0.089-0.635,0.135c-0.185,0.041-0.37,0.081-0.555,0.125c-0.081,0.02-0.161,0.039-0.242,0.059
		c-0.198,0.049-0.395,0.102-0.591,0.155c-0.18,0.049-0.359,0.098-0.538,0.15c-0.098,0.028-0.195,0.057-0.293,0.086
		c-0.176,0.053-0.352,0.109-0.527,0.165c-0.178,0.057-0.355,0.115-0.532,0.176c-0.118,0.04-0.235,0.081-0.353,0.123
		c-0.149,0.054-0.298,0.108-0.446,0.164c-0.177,0.067-0.354,0.136-0.531,0.206c-0.139,0.055-0.277,0.111-0.415,0.168
		c-0.121,0.051-0.242,0.101-0.362,0.153c-0.178,0.077-0.355,0.156-0.532,0.236c-0.157,0.071-0.313,0.142-0.469,0.216
		c-0.096,0.046-0.192,0.091-0.288,0.138c-0.177,0.086-0.352,0.175-0.527,0.265c-0.17,0.087-0.341,0.175-0.51,0.266
		c-0.077,0.041-0.154,0.082-0.23,0.124c-0.173,0.095-0.345,0.193-0.517,0.292c-0.179,0.103-0.358,0.206-0.536,0.313
		c-0.063,0.038-0.127,0.076-0.19,0.115c-0.17,0.104-0.337,0.212-0.505,0.319c-0.182,0.116-0.363,0.232-0.542,0.352
		c-0.057,0.039-0.114,0.077-0.171,0.116c-0.166,0.113-0.329,0.23-0.493,0.347c-0.175,0.125-0.352,0.248-0.525,0.377
		c-0.058,0.043-0.114,0.086-0.171,0.129c-0.163,0.124-0.324,0.252-0.485,0.379c-0.165,0.129-0.331,0.256-0.493,0.389
		c-0.058,0.048-0.114,0.096-0.171,0.144c-0.169,0.141-0.335,0.288-0.502,0.434c-0.145,0.126-0.293,0.248-0.436,0.378
		c-0.055,0.05-0.107,0.102-0.162,0.152c-0.043,0.039-0.087,0.075-0.129,0.114L261.393,378.156
		c-12.133,11.283-12.822,30.265-1.538,42.398c11.283,12.133,30.265,12.822,42.398,1.539l187.448-174.315V719.1H90.288v100h850.394
		v-100H549.701V251.312z"/>
</g>
</svg>
