<?xml version="1.0" encoding="utf-8"?>
<!-- Generator: Adobe Illustrator 22.1.0, SVG Export Plug-In . SVG Version: 6.00 Build 0)  -->
<svg version="1.1" id="图形" xmlns="http://www.w3.org/2000/svg" xmlns:xlink="http://www.w3.org/1999/xlink" x="0px" y="0px"
	 viewBox="90.288 58.809 850.394 850.394" enable-background="new 90.288 58.809 850.394 850.394" xml:space="preserve">
<g>
	<path fill="#040000" d="M910.682,741.202c16.568,0,30-13.432,30-30v-167c0-16.568-13.432-30-30-30h-201c-16.568,0-30,13.432-30,30
		s13.432,30,30,30h171v107h-171c-16.568,0-30,13.432-30,30v168c0,16.568,13.432,30,30,30h201c16.568,0,30-13.432,30-30
		s-13.432-30-30-30h-171v-108H910.682z"/>
	<path fill="#040000" d="M591.793,67.639c-11.692-11.74-30.688-11.779-42.427-0.086l-203.954,203.12L141.458,67.552
		c-11.74-11.692-30.736-11.652-42.426,0.086c-11.692,11.74-11.653,30.735,0.086,42.427l203.78,202.947L99.118,515.96
		c-11.739,11.692-11.778,30.687-0.086,42.427c5.861,5.886,13.559,8.83,21.257,8.83c7.657,0,15.315-2.913,21.169-8.743
		l203.954-203.121l203.954,203.121c5.855,5.831,13.512,8.743,21.17,8.743c7.697,0,15.396-2.945,21.257-8.83
		c11.691-11.74,11.652-30.734-0.087-42.427l-203.78-202.947l203.78-202.947C603.446,98.374,603.485,79.379,591.793,67.639z"/>
</g>
</svg>
