<?xml version="1.0" encoding="utf-8"?>
<!-- Generator: Adobe Illustrator 22.1.0, SVG Export Plug-In . SVG Version: 6.00 Build 0)  -->
<svg version="1.1" id="图形" xmlns="http://www.w3.org/2000/svg" xmlns:xlink="http://www.w3.org/1999/xlink" x="0px" y="0px"
	 viewBox="90.288 58.809 850.394 850.394" enable-background="new 90.288 58.809 850.394 850.394" xml:space="preserve">
<g>
	<path d="M819.649,454.006H211.321c-16.568,0-30,13.431-30,30s13.432,30,30,30h608.328c16.568,0,30-13.431,30-30
		S836.217,454.006,819.649,454.006z"/>
	<path d="M493.53,378.637c0.158,0.161,0.322,0.311,0.483,0.467c0.133,0.13,0.265,0.26,0.401,0.388
		c0.48,0.451,0.968,0.886,1.47,1.299c0.027,0.022,0.055,0.043,0.083,0.065c0.511,0.418,1.035,0.812,1.567,1.191
		c0.083,0.059,0.166,0.119,0.25,0.177c1.186,0.828,2.418,1.56,3.687,2.197c0.022,0.011,0.044,0.022,0.065,0.033
		c2.445,1.22,5.021,2.093,7.655,2.604c0.026,0.005,0.052,0.008,0.077,0.013c0.442,0.085,0.885,0.162,1.33,0.226
		c1.438,0.21,2.883,0.314,4.324,0.314c0.245,0,0.49-0.012,0.735-0.018c0.237-0.006,0.475-0.006,0.712-0.018
		c0.162-0.008,0.323-0.024,0.485-0.034c0.329-0.021,0.658-0.041,0.986-0.073c0.109-0.011,0.217-0.027,0.326-0.039
		c0.381-0.041,0.762-0.085,1.142-0.141c0.07-0.01,0.138-0.024,0.208-0.035c0.42-0.065,0.839-0.136,1.256-0.218
		c0.033-0.007,0.066-0.015,0.1-0.022c0.453-0.091,0.905-0.192,1.354-0.305c0.001,0,0.003-0.001,0.004-0.001
		c1.897-0.474,3.756-1.138,5.55-1.989c0.003-0.001,0.006-0.003,0.009-0.004c0.435-0.206,0.865-0.424,1.292-0.652
		c0.032-0.017,0.064-0.036,0.096-0.053c0.392-0.212,0.781-0.432,1.165-0.663c0.069-0.042,0.138-0.085,0.207-0.127
		c0.341-0.208,0.679-0.422,1.014-0.645c0.112-0.075,0.223-0.153,0.335-0.23c0.286-0.197,0.57-0.396,0.851-0.604
		c0.151-0.111,0.299-0.227,0.448-0.342c0.237-0.182,0.473-0.366,0.706-0.556c0.179-0.147,0.355-0.298,0.532-0.449
		c0.199-0.171,0.398-0.341,0.593-0.518c0.192-0.173,0.38-0.352,0.568-0.531c0.119-0.113,0.241-0.219,0.358-0.335
		c0.061-0.06,0.117-0.123,0.177-0.183c0.065-0.065,0.133-0.125,0.197-0.19l111.82-113.81c11.612-11.819,11.444-30.813-0.374-42.425
		c-11.819-11.613-30.814-11.445-42.425,0.374l-60.421,61.496V88.809c0-16.568-13.432-30-30-30s-30,13.432-30,30v195.465
		l-59.311-60.364c-11.611-11.818-30.606-11.985-42.425-0.373c-11.818,11.612-11.985,30.606-0.373,42.425L493.53,378.637z"/>
	<path d="M536.329,589.374c-0.045-0.046-0.095-0.087-0.14-0.132c-0.079-0.08-0.153-0.163-0.234-0.242
		c-0.4-0.393-0.809-0.769-1.224-1.135c-0.071-0.062-0.144-0.12-0.216-0.182c-0.46-0.397-0.929-0.776-1.406-1.14
		c-0.103-0.079-0.206-0.158-0.31-0.236c-1.13-0.841-2.306-1.59-3.518-2.25c-0.053-0.029-0.105-0.058-0.158-0.086
		c-1.253-0.673-2.542-1.251-3.859-1.733c-0.049-0.018-0.098-0.036-0.147-0.054c-1.301-0.469-2.626-0.844-3.968-1.127
		c-0.106-0.022-0.211-0.045-0.317-0.066c-0.652-0.13-1.306-0.244-1.964-0.33c-0.071-0.009-0.142-0.015-0.213-0.024
		c-0.573-0.071-1.147-0.124-1.722-0.162c-0.17-0.011-0.34-0.024-0.51-0.032c-0.619-0.031-1.239-0.046-1.859-0.038
		c-0.144,0.002-0.289,0.01-0.433,0.014c-0.521,0.014-1.041,0.042-1.56,0.082c-0.173,0.014-0.346,0.025-0.519,0.042
		c-0.63,0.06-1.258,0.14-1.884,0.24c-0.118,0.019-0.236,0.043-0.355,0.063c-0.599,0.103-1.196,0.224-1.789,0.364
		c-0.077,0.018-0.154,0.034-0.23,0.052c-0.687,0.167-1.368,0.361-2.044,0.578c-0.04,0.013-0.079,0.027-0.119,0.04
		c-1.398,0.454-2.768,1.014-4.1,1.679c-0.021,0.011-0.042,0.022-0.064,0.032c-1.27,0.638-2.503,1.37-3.69,2.199
		c-0.085,0.06-0.17,0.12-0.254,0.181c-0.514,0.367-1.021,0.749-1.516,1.153c-0.046,0.037-0.093,0.072-0.139,0.109
		c-0.497,0.41-0.981,0.841-1.457,1.288c-0.136,0.128-0.268,0.258-0.401,0.388c-0.16,0.156-0.324,0.305-0.481,0.466L382.821,702.05
		c-11.612,11.818-11.445,30.813,0.373,42.425c5.842,5.739,13.435,8.601,21.024,8.601c7.766,0,15.528-2.997,21.4-8.975l59.311-60.364
		v195.465c0,16.568,13.432,30,30,30s30-13.432,30-30V683.74l60.421,61.496c11.61,11.817,30.605,11.987,42.425,0.374
		c11.818-11.611,11.986-30.606,0.374-42.425L536.329,589.374z"/>
</g>
</svg>
