<?xml version="1.0" encoding="utf-8"?>
<!-- Generator: Adobe Illustrator 22.1.0, SVG Export Plug-In . SVG Version: 6.00 Build 0)  -->
<svg version="1.1" id="图形" xmlns="http://www.w3.org/2000/svg" xmlns:xlink="http://www.w3.org/1999/xlink" x="0px" y="0px"
	 viewBox="90.288 58.809 850.394 850.394" enable-background="new 90.288 58.809 850.394 850.394" xml:space="preserve">
<path fill="#080103" d="M910.682,58.809h-221c-16.568,0-30,13.432-30,30v221c0,16.568,13.432,30,30,30h80.996v114.476h-540
	c-16.568,0-30,13.432-30,30v143.918h-80.39c-16.568,0-30,13.432-30,30v221c0,16.568,13.432,30,30,30h221c16.568,0,30-13.432,30-30
	v-221c0-16.568-13.432-30-30-30h-80.61V514.284h540c16.568,0,30-13.432,30-30V339.809h80.004c16.568,0,30-13.432,30-30v-221
	C940.682,72.24,927.25,58.809,910.682,58.809z M311.288,849.202h-161v-161h78.281c0.698,0.049,1.399,0.082,2.109,0.082
	s1.411-0.034,2.109-0.082h78.501V849.202z M880.682,279.809h-161v-161h161V279.809z"/>
</svg>
