<?xml version="1.0" encoding="utf-8"?>
<!-- Generator: Adobe Illustrator 22.1.0, SVG Export Plug-In . SVG Version: 6.00 Build 0)  -->
<svg version="1.1" id="图形" xmlns="http://www.w3.org/2000/svg" xmlns:xlink="http://www.w3.org/1999/xlink" x="0px" y="0px"
	 viewBox="90.288 58.809 850.394 850.394" enable-background="new 90.288 58.809 850.394 850.394" xml:space="preserve">
<g>
	<path fill="#080103" d="M443.972,323.66c5.825,0,11.646-2.248,16.051-6.731l32.605-33.184v117.76c0,12.426,10.073,22.5,22.5,22.5
		s22.5-10.074,22.5-22.5v-117.76l33.319,33.913c8.709,8.864,22.955,8.99,31.818,0.281c8.864-8.709,8.99-22.955,0.281-31.819
		l-71.869-73.148c-0.055-0.056-0.115-0.105-0.17-0.161c-0.039-0.039-0.071-0.081-0.11-0.119c-0.09-0.089-0.189-0.162-0.28-0.249
		c-0.381-0.362-0.771-0.709-1.172-1.041c-0.167-0.138-0.334-0.276-0.504-0.408c-0.429-0.334-0.867-0.65-1.316-0.949
		c-0.119-0.079-0.233-0.168-0.352-0.245c-0.533-0.342-1.082-0.655-1.638-0.949c-0.227-0.12-0.457-0.227-0.686-0.339
		c-0.367-0.178-0.737-0.347-1.112-0.504c-0.246-0.103-0.49-0.206-0.739-0.3c-0.444-0.168-0.893-0.318-1.345-0.457
		c-0.164-0.05-0.325-0.111-0.49-0.158c-0.603-0.171-1.215-0.31-1.83-0.43c-0.205-0.04-0.411-0.07-0.617-0.104
		c-0.46-0.077-0.921-0.14-1.385-0.187c-0.201-0.021-0.402-0.042-0.603-0.057c-0.559-0.043-1.12-0.065-1.682-0.065
		c-0.09,0-0.179-0.007-0.269-0.006c-0.659,0.007-1.319,0.046-1.978,0.112c-0.156,0.016-0.311,0.041-0.467,0.059
		c-0.491,0.059-0.98,0.133-1.469,0.225c-0.22,0.041-0.438,0.086-0.657,0.134c-0.434,0.095-0.865,0.207-1.296,0.329
		c-0.22,0.062-0.442,0.118-0.66,0.187c-0.585,0.185-1.167,0.39-1.742,0.625c-0.004,0.002-0.008,0.004-0.012,0.005
		c-0.219,0.09-0.432,0.198-0.649,0.294c-0.388,0.173-0.773,0.351-1.147,0.545c-0.244,0.126-0.483,0.261-0.723,0.396
		c-0.37,0.208-0.731,0.427-1.086,0.654c-0.201,0.129-0.403,0.254-0.6,0.39c-0.544,0.373-1.072,0.765-1.578,1.181
		c-0.065,0.054-0.126,0.114-0.191,0.169c-0.468,0.395-0.917,0.811-1.349,1.241c-0.063,0.063-0.132,0.116-0.195,0.179l-71.154,72.419
		c-8.709,8.864-8.583,23.109,0.28,31.818C432.585,321.514,438.28,323.66,443.972,323.66z"/>
	<path fill="#080103" d="M570.947,650.353l-33.319,33.913v-117.76c0-12.427-10.073-22.5-22.5-22.5s-22.5,10.073-22.5,22.5v117.76
		l-32.605-33.184c-8.711-8.865-22.956-8.989-31.818-0.279c-8.864,8.709-8.989,22.954-0.28,31.818l71.154,72.418
		c0.063,0.064,0.133,0.117,0.196,0.18c0.442,0.439,0.899,0.864,1.378,1.266c0.06,0.051,0.117,0.107,0.177,0.156
		c0.506,0.417,1.037,0.807,1.582,1.181c0.206,0.141,0.415,0.272,0.625,0.406c0.352,0.225,0.712,0.44,1.078,0.646
		c0.243,0.137,0.485,0.274,0.732,0.401c0.398,0.204,0.807,0.392,1.22,0.573c1.535,0.675,3.124,1.189,4.748,1.504
		c0.493,0.096,0.989,0.154,1.484,0.217c0.218,0.027,0.433,0.074,0.652,0.095c0.724,0.07,1.448,0.106,2.171,0.106
		c0.111,0,0.222-0.015,0.333-0.016c0.616-0.009,1.232-0.032,1.846-0.091c0.192-0.019,0.381-0.058,0.572-0.082
		c0.536-0.066,1.071-0.134,1.602-0.238c0.174-0.034,0.344-0.086,0.517-0.125c0.543-0.12,1.084-0.245,1.618-0.406
		c0.164-0.049,0.322-0.114,0.484-0.167c0.534-0.174,1.065-0.354,1.588-0.569c0.175-0.072,0.342-0.16,0.515-0.236
		c0.496-0.219,0.99-0.442,1.473-0.698c0.209-0.111,0.409-0.241,0.615-0.358c0.43-0.246,0.859-0.491,1.275-0.768
		c0.254-0.168,0.495-0.359,0.742-0.538c0.352-0.255,0.705-0.504,1.045-0.782c0.279-0.228,0.542-0.479,0.812-0.722
		c0.245-0.221,0.501-0.423,0.738-0.656c0.048-0.047,0.087-0.099,0.135-0.146c0.047-0.047,0.099-0.087,0.146-0.134l71.869-73.147
		c8.709-8.863,8.583-23.109-0.28-31.818C593.902,641.365,579.656,641.49,570.947,650.353z"/>
	<path fill="#080103" d="M910.682,58.809H684.91c-16.568,0-30,13.432-30,30v225.808c0,16.568,13.432,30,30,30h82.887v109.668
		H232.678c-16.568,0-30,13.431-30,30v139.111h-82.39c-16.568,0-30,13.432-30,30v225.807c0,16.568,13.432,30,30,30H346.06
		c16.568,0,30-13.432,30-30V653.396c0-16.568-13.432-30-30-30h-83.381V514.284h535.118c16.568,0,30-13.432,30-30V344.616h82.886
		c16.568,0,30-13.432,30-30V88.809C940.682,72.24,927.25,58.809,910.682,58.809z M316.06,849.202H150.288V683.396H316.06V849.202z
		 M880.682,284.616H714.91V118.809h165.772V284.616z"/>
</g>
</svg>
