<?xml version="1.0" encoding="utf-8"?>
<!-- Generator: Adobe Illustrator 22.1.0, SVG Export Plug-In . SVG Version: 6.00 Build 0)  -->
<svg version="1.1" id="图形" xmlns="http://www.w3.org/2000/svg" xmlns:xlink="http://www.w3.org/1999/xlink" x="0px" y="0px"
	 viewBox="90.288 58.809 850.394 850.394" enable-background="new 90.288 58.809 850.394 850.394" xml:space="preserve">
<path fill="#080103" d="M120.288,58.809H346.06c16.568,0,30,13.432,30,30v204.782l241.001,92.693
	c9.384,3.61,16.337,11.681,18.517,21.496c2.18,9.816-0.703,20.071-7.677,27.313L526.263,540.642l166.304,82.754h218.115
	c16.568,0,30,13.432,30,30v225.807c0,16.568-13.432,30-30,30H684.911c-16.568,0-30-13.432-30-30V671.675l-191.984-95.532
	c-8.553-4.256-14.567-12.332-16.196-21.745c-1.628-9.414,1.325-19.041,7.952-25.923l98.631-102.424l-211.729-81.434H120.288
	c-16.568,0-30-13.432-30-30V88.809C90.288,72.24,103.72,58.809,120.288,58.809z M714.911,849.202h165.771V683.396H714.911V849.202z
	 M150.288,284.616H316.06V118.809H150.288V284.616z"/>
</svg>
