<?xml version="1.0" encoding="utf-8"?>
<!-- Generator: Adobe Illustrator 22.1.0, SVG Export Plug-In . SVG Version: 6.00 Build 0)  -->
<svg version="1.1" id="图形" xmlns="http://www.w3.org/2000/svg" xmlns:xlink="http://www.w3.org/1999/xlink" x="0px" y="0px"
	 viewBox="90.288 58.809 850.394 850.394" enable-background="new 90.288 58.809 850.394 850.394" xml:space="preserve">
<path d="M884.335,61.891H647.237c-0.006,0-0.013,0-0.019,0s-0.013,0-0.019,0H383.773c-0.006,0-0.013,0-0.019,0s-0.013,0-0.019,0
	H146.635c-31.07,0-56.347,26.25-56.347,58.517v727.195c0,32.268,25.277,58.519,56.347,58.519h737.701
	c31.069,0,56.347-26.251,56.347-58.519V120.408C940.682,88.141,915.405,61.891,884.335,61.891z M413.753,584.711v-201.41h203.464
	v201.41H413.753z M617.217,644.711v201.41H413.753v-201.41H617.217z M150.288,383.301h203.465v201.41H150.288V383.301z
	 M413.753,323.301v-201.41h203.464v201.41H413.753z M677.217,383.301h203.465v201.41H677.217V383.301z M880.682,323.301H677.217
	v-201.41h203.465V323.301z M353.753,121.891v201.41H150.288v-201.41H353.753z M150.288,644.711h203.465v201.41H150.288V644.711z
	 M677.217,846.121v-201.41h203.465v201.41H677.217z"/>
</svg>
