<?xml version="1.0" encoding="utf-8"?>
<!-- Generator: Adobe Illustrator 22.1.0, SVG Export Plug-In . SVG Version: 6.00 Build 0)  -->
<svg version="1.1" id="图形" xmlns="http://www.w3.org/2000/svg" xmlns:xlink="http://www.w3.org/1999/xlink" x="0px" y="0px"
	 viewBox="90.288 58.809 850.394 850.394" enable-background="new 90.288 58.809 850.394 850.394" xml:space="preserve">
<g>
	<path fill="#080103" d="M237.483,483.946c0.001,0.549,0.023,1.096,0.064,1.641c0.016,0.209,0.037,0.417,0.059,0.626
		c0.047,0.455,0.109,0.906,0.184,1.357c0.035,0.214,0.066,0.427,0.108,0.64c0.119,0.61,0.257,1.217,0.426,1.816
		c0.05,0.177,0.116,0.351,0.17,0.527c0.136,0.439,0.281,0.875,0.444,1.306c0.096,0.255,0.201,0.506,0.307,0.758
		c0.154,0.367,0.319,0.729,0.493,1.088c0.114,0.236,0.225,0.473,0.348,0.705c0.292,0.553,0.603,1.098,0.943,1.628
		c0.081,0.126,0.174,0.247,0.258,0.372c0.296,0.441,0.607,0.874,0.935,1.296c0.134,0.172,0.274,0.341,0.414,0.511
		c0.33,0.4,0.676,0.788,1.037,1.167c0.087,0.092,0.161,0.191,0.25,0.281c0.038,0.039,0.08,0.071,0.119,0.109
		c0.056,0.056,0.105,0.116,0.162,0.171l73.148,71.87c4.381,4.305,10.076,6.45,15.768,6.45c5.824,0,11.646-2.248,16.05-6.73
		c8.709-8.864,8.583-23.11-0.28-31.819l-33.913-33.32h117.76c12.426,0,22.5-10.073,22.5-22.5s-10.074-22.5-22.5-22.5H314.976
		l33.185-32.605c8.864-8.709,8.989-22.955,0.28-31.818c-8.708-8.864-22.955-8.99-31.818-0.28l-72.419,71.155
		c-0.064,0.063-0.117,0.132-0.18,0.195c-0.429,0.431-0.842,0.877-1.236,1.343c-0.057,0.067-0.119,0.131-0.175,0.198
		c-0.416,0.504-0.806,1.031-1.178,1.574c-0.138,0.2-0.264,0.405-0.395,0.608c-0.225,0.352-0.442,0.71-0.648,1.076
		c-0.137,0.243-0.273,0.485-0.401,0.732c-0.191,0.37-0.367,0.75-0.538,1.133c-0.099,0.221-0.209,0.438-0.3,0.662
		c-0.001,0.003-0.003,0.007-0.005,0.01c-0.235,0.573-0.439,1.153-0.624,1.737c-0.071,0.225-0.128,0.452-0.192,0.679
		c-0.119,0.423-0.229,0.847-0.323,1.273c-0.049,0.225-0.095,0.45-0.137,0.676c-0.09,0.479-0.162,0.958-0.221,1.439
		c-0.02,0.165-0.047,0.33-0.063,0.495c-0.065,0.654-0.104,1.309-0.111,1.963C237.476,483.742,237.483,483.843,237.483,483.946z"/>
	<path fill="#080103" d="M788.252,497.705c0.327-0.42,0.636-0.85,0.93-1.289c0.086-0.128,0.181-0.251,0.264-0.38
		c0.339-0.529,0.649-1.072,0.94-1.624c0.125-0.236,0.237-0.476,0.353-0.715c0.172-0.355,0.335-0.713,0.488-1.076
		c0.107-0.255,0.214-0.51,0.311-0.768c0.16-0.424,0.303-0.854,0.437-1.286c0.058-0.188,0.127-0.373,0.18-0.562
		c0.167-0.591,0.303-1.189,0.421-1.792c0.042-0.217,0.074-0.435,0.11-0.654c0.074-0.445,0.135-0.891,0.181-1.34
		c0.022-0.213,0.044-0.425,0.06-0.639c0.041-0.538,0.061-1.078,0.063-1.62c0-0.109,0.008-0.217,0.007-0.326
		c-0.007-0.652-0.046-1.304-0.111-1.956c-0.017-0.17-0.044-0.339-0.065-0.508c-0.058-0.476-0.129-0.951-0.218-1.425
		c-0.043-0.229-0.089-0.457-0.139-0.686c-0.093-0.422-0.201-0.841-0.319-1.26c-0.065-0.231-0.123-0.462-0.195-0.691
		c-0.184-0.582-0.389-1.161-0.623-1.733c-0.001-0.002-0.002-0.005-0.003-0.007c-0.094-0.229-0.206-0.451-0.307-0.677
		c-0.17-0.378-0.343-0.753-0.531-1.119c-0.128-0.249-0.266-0.493-0.404-0.738c-0.205-0.363-0.42-0.718-0.644-1.067
		c-0.132-0.206-0.26-0.412-0.399-0.614c-0.372-0.541-0.761-1.067-1.176-1.57c-0.058-0.071-0.124-0.137-0.183-0.207
		c-0.391-0.463-0.802-0.906-1.227-1.334c-0.064-0.064-0.117-0.134-0.182-0.198l-72.419-71.155
		c-8.864-8.708-23.107-8.583-31.819,0.28c-8.709,8.864-8.583,23.109,0.28,31.818l33.185,32.605H597.737
		c-12.427,0-22.5,10.074-22.5,22.5s10.073,22.5,22.5,22.5h117.761l-33.913,33.32c-8.863,8.709-8.989,22.955-0.28,31.819
		c4.405,4.482,10.226,6.73,16.051,6.73c5.691,0,11.388-2.146,15.769-6.45l73.147-71.87c0.056-0.055,0.106-0.115,0.162-0.171
		c0.038-0.038,0.081-0.07,0.119-0.109c0.089-0.091,0.163-0.19,0.25-0.282c0.36-0.379,0.706-0.767,1.035-1.166
		C787.977,498.048,788.117,497.878,788.252,497.705z"/>
	<path fill="#080103" d="M910.682,58.809H684.91c-16.568,0-30,13.432-30,30v82.638H515.515c-7.956,0-15.587,3.161-21.213,8.787
		c-5.626,5.626-8.787,13.257-8.787,21.213l0.001,535.118H376.06v-83.169c0-16.568-13.432-30-30-30H120.288
		c-16.568,0-30,13.432-30,30v225.807c0,16.568,13.432,30,30,30H346.06c16.568,0,30-13.432,30-30v-82.638h139.457
		c7.957,0,15.587-3.161,21.213-8.787s8.787-13.257,8.787-21.213l-0.001-535.118H654.91v83.169c0,16.568,13.432,30,30,30h225.772
		c16.568,0,30-13.432,30-30V88.809C940.682,72.24,927.25,58.809,910.682,58.809z M150.288,849.202V683.396H316.06v79.653
		c-0.135,1.154-0.212,2.326-0.212,3.516s0.077,2.362,0.212,3.516v79.122H150.288z M880.682,284.616H714.91V118.809h165.772V284.616z
		"/>
</g>
</svg>
