<?xml version="1.0" encoding="utf-8"?>
<!-- Generator: Adobe Illustrator 22.1.0, SVG Export Plug-In . SVG Version: 6.00 Build 0)  -->
<svg version="1.1" id="图形" xmlns="http://www.w3.org/2000/svg" xmlns:xlink="http://www.w3.org/1999/xlink" x="0px" y="0px"
	 viewBox="90.288 58.809 850.394 850.394" enable-background="new 90.288 58.809 850.394 850.394" xml:space="preserve">
<path fill="#080103" d="M910.682,58.809H684.91c-16.568,0-30,13.432-30,30v225.808c0,16.568,13.432,30,30,30h82.694
	c-1.744,24.448-8.296,59.855-30.194,83.764c-16.582,18.104-39.718,26.904-70.731,26.904c-2.474,0-252.412,0.389-266.542,1.475
	c-66.996,5.147-115.616,23.797-148.637,57.015c-27.231,27.393-42.85,63.446-47.402,109.622h-83.809c-16.568,0-30,13.432-30,30
	v225.807c0,16.568,13.432,30,30,30H346.06c16.568,0,30-13.432,30-30V653.396c0-16.568-13.432-30-30-30h-81.583
	c8.882-68.411,51.361-99.952,140.115-106.803c14.44-0.779,232.373-1.309,262.087-1.309c48.264,0,87.037-15.702,115.243-46.67
	c34.711-38.111,43.813-90.387,45.782-123.998h82.979c16.568,0,30-13.432,30-30V88.809C940.682,72.24,927.25,58.809,910.682,58.809z
	 M316.06,849.202H150.288V683.396H316.06V849.202z M880.682,284.616h-78.289c-2.432-0.388-4.95-0.481-7.513-0.243
	c-0.636,0.06-1.263,0.145-1.885,0.243H714.91V118.809h165.772V284.616z"/>
</svg>
