<?xml version="1.0" encoding="utf-8"?>
<!-- Generator: Adobe Illustrator 22.1.0, SVG Export Plug-In . SVG Version: 6.00 Build 0)  -->
<svg version="1.1" id="图形" xmlns="http://www.w3.org/2000/svg" xmlns:xlink="http://www.w3.org/1999/xlink" x="0px" y="0px"
	 viewBox="90.288 58.809 850.394 850.394" enable-background="new 90.288 58.809 850.394 850.394" xml:space="preserve">
<g>
	<path d="M910.557,909.202H120.413c-16.568,0-30-13.432-30-30s13.432-30,30-30h790.144c16.568,0,30,13.432,30,30
		S927.125,909.202,910.557,909.202z"/>
	<path d="M535.574,760.672c-0.001,0.001-0.002,0.002-0.003,0.003c-0.001,0.001-0.003,0.003-0.004,0.004
		c-0.481,0.481-0.979,0.935-1.484,1.377c-0.119,0.104-0.238,0.206-0.358,0.307c-1.057,0.896-2.16,1.707-3.303,2.433
		c-0.067,0.043-0.135,0.085-0.203,0.127c-1.203,0.751-2.447,1.409-3.723,1.974c-0.038,0.017-0.075,0.033-0.113,0.049
		c-1.292,0.565-2.614,1.035-3.959,1.409c-0.071,0.02-0.143,0.038-0.214,0.058c-0.655,0.177-1.314,0.337-1.978,0.469
		c-0.008,0.002-0.016,0.004-0.023,0.005c-0.651,0.129-1.306,0.232-1.962,0.317c-0.141,0.018-0.282,0.034-0.424,0.051
		c-0.584,0.068-1.169,0.121-1.755,0.154c-0.076,0.004-0.152,0.013-0.229,0.016c-0.628,0.031-1.256,0.036-1.884,0.028
		c-0.179-0.002-0.358-0.007-0.537-0.013c-0.597-0.019-1.193-0.05-1.788-0.104c-0.048-0.004-0.097-0.006-0.145-0.01
		c-0.65-0.062-1.298-0.153-1.944-0.258c-0.139-0.023-0.277-0.046-0.416-0.07c-1.368-0.241-2.721-0.578-4.05-1.009
		c-0.044-0.014-0.087-0.028-0.131-0.042c-1.403-0.462-2.778-1.031-4.114-1.706c-0.004-0.002-0.007-0.003-0.011-0.005
		c-1.264-0.64-2.492-1.376-3.674-2.206c-0.075-0.053-0.151-0.104-0.226-0.157c-0.546-0.391-1.083-0.799-1.607-1.231
		c-0.079-0.065-0.154-0.134-0.233-0.2c-0.417-0.35-0.825-0.715-1.227-1.091c-0.142-0.133-0.284-0.267-0.423-0.403
		c-0.095-0.093-0.194-0.18-0.289-0.275L268.456,535.919c-11.714-11.718-11.711-30.712,0.006-42.426
		c5.858-5.856,13.533-8.784,21.21-8.784c7.679,0,15.359,2.931,21.216,8.79L484.357,667.02l-0.001-578.211c0-16.568,13.432-30,30-30
		s30,13.432,30,30l0.001,578.21l175.724-175.782c11.714-11.717,30.709-11.722,42.427-0.007
		c11.718,11.714,11.721,30.709,0.007,42.427L535.574,760.672z"/>
</g>
</svg>
