<?xml version="1.0" encoding="utf-8"?>
<!-- Generator: Adobe Illustrator 22.1.0, SVG Export Plug-In . SVG Version: 6.00 Build 0)  -->
<svg version="1.1" id="图形" xmlns="http://www.w3.org/2000/svg" xmlns:xlink="http://www.w3.org/1999/xlink" x="0px" y="0px"
	 viewBox="90.288 58.809 850.394 850.394" enable-background="new 90.288 58.809 850.394 850.394" xml:space="preserve">
<g>
	<path d="M346.012,281.124c-11.203-12.208-30.181-13.023-42.388-1.821l-203.62,186.85c-6.281,5.764-9.813,13.927-9.714,22.451
		s3.819,16.604,10.231,22.22l203.62,178.347c5.693,4.986,12.739,7.433,19.754,7.433c8.346,0,16.649-3.462,22.58-10.233
		c10.917-12.464,9.663-31.417-2.801-42.334L165.226,487.737l178.965-164.226C356.399,312.309,357.214,293.332,346.012,281.124z"/>
	<path d="M930.449,457.187L726.829,278.84c-12.463-10.915-31.417-9.663-42.334,2.801c-10.917,12.464-9.663,31.417,2.801,42.334
		l178.448,156.3L686.779,644.5c-12.208,11.202-13.023,30.18-1.82,42.387c5.916,6.447,14,9.717,22.111,9.717
		c7.247,0,14.516-2.61,20.275-7.896l203.62-186.849c6.281-5.764,9.813-13.927,9.715-22.451S936.861,462.804,930.449,457.187z"/>
	<path d="M580.414,218.643c-16.093-3.939-32.333,5.916-36.271,22.01L428.545,713.098c-3.938,16.094,5.917,32.332,22.01,36.271
		c2.396,0.586,4.793,0.866,7.154,0.866c13.5,0,25.765-9.179,29.117-22.877l115.598-472.444
		C606.362,238.82,596.507,222.581,580.414,218.643z"/>
</g>
</svg>
