<?xml version="1.0" encoding="utf-8"?>
<!-- Generator: Adobe Illustrator 22.1.0, SVG Export Plug-In . SVG Version: 6.00 Build 0)  -->
<svg version="1.1" id="图形" xmlns="http://www.w3.org/2000/svg" xmlns:xlink="http://www.w3.org/1999/xlink" x="0px" y="0px"
	 viewBox="90.288 58.809 850.394 850.394" enable-background="new 90.288 58.809 850.394 850.394" xml:space="preserve">
<g>
	<path d="M418.678,438.922c0-16.568-13.432-30-30-30H119.413c-16.568,0-30,13.432-30,30s13.432,30,30,30h269.265
		C405.247,468.922,418.678,455.49,418.678,438.922z"/>
	<path d="M910.682,408.922H641.416c-16.568,0-30,13.432-30,30s13.432,30,30,30h269.266c16.568,0,30-13.432,30-30
		S927.25,408.922,910.682,408.922z"/>
	<path d="M720.402,570.874L544.678,746.656l-0.001-473.026h396.005v-100H90.288v100h394.389l0.001,473.026L311.21,573.136
		c-11.714-11.718-30.708-11.721-42.426-0.007c-11.717,11.714-11.72,30.709-0.006,42.427L493.462,840.31
		c0.095,0.095,0.194,0.182,0.289,0.275c0.139,0.136,0.28,0.269,0.422,0.402c0.402,0.377,0.81,0.741,1.227,1.091
		c0.079,0.066,0.154,0.135,0.233,0.2c0.524,0.431,1.06,0.839,1.605,1.229c0.076,0.054,0.154,0.107,0.23,0.161
		c0.562,0.394,1.132,0.77,1.714,1.122c0.001,0,0.002,0.001,0.002,0.001c0.639,0.386,1.29,0.744,1.95,1.078
		c0.008,0.004,0.015,0.007,0.023,0.011c2.832,1.43,5.842,2.385,8.914,2.86c0.089,0.014,0.177,0.032,0.266,0.045
		c0.259,0.038,0.52,0.064,0.78,0.095c0.227,0.027,0.453,0.06,0.68,0.082c0.048,0.005,0.096,0.006,0.144,0.01
		c0.909,0.083,1.82,0.128,2.729,0.128c0.668,0,1.334-0.031,1.998-0.075c0.304-0.02,0.608-0.037,0.912-0.067
		c0.053-0.005,0.105-0.013,0.158-0.019c6.158-0.628,12.159-3.153,17.051-7.581c0.217-0.196,0.426-0.403,0.638-0.607
		c0.152-0.146,0.308-0.286,0.458-0.436c0.001-0.001,0.002-0.002,0.003-0.003s0.002-0.002,0.003-0.003l226.94-227.016
		c11.714-11.718,11.711-30.713-0.007-42.427S732.116,559.156,720.402,570.874z"/>
</g>
</svg>
