<?xml version="1.0" encoding="utf-8"?>
<!-- Generator: Adobe Illustrator 22.1.0, SVG Export Plug-In . SVG Version: 6.00 Build 0)  -->
<svg version="1.1" id="图形" xmlns="http://www.w3.org/2000/svg" xmlns:xlink="http://www.w3.org/1999/xlink" x="0px" y="0px"
	 viewBox="90.288 58.809 850.394 850.394" enable-background="new 90.288 58.809 850.394 850.394" xml:space="preserve">
<path fill="#080103" d="M937.393,475.397L725.625,315.453c-3.267-2.467-7.646-2.872-11.311-1.049
	c-3.664,1.824-5.98,5.565-5.98,9.658v129.943H119.29c-16.568,0-30,13.431-30,30s13.432,30,30,30h589.044v129.944
	c0,4.093,2.316,7.833,5.98,9.657c1.522,0.759,3.169,1.132,4.808,1.132c2.305,0,4.595-0.738,6.503-2.18l211.768-159.944
	c2.7-2.039,4.287-5.226,4.287-8.609S940.093,477.435,937.393,475.397z"/>
</svg>
