<?xml version="1.0" encoding="utf-8"?>
<!-- Generator: Adobe Illustrator 22.1.0, SVG Export Plug-In . SVG Version: 6.00 Build 0)  -->
<svg version="1.1" id="图形" xmlns="http://www.w3.org/2000/svg" xmlns:xlink="http://www.w3.org/1999/xlink" x="0px" y="0px"
	 viewBox="90.288 58.809 850.394 850.394" enable-background="new 90.288 58.809 850.394 850.394" xml:space="preserve">
<g>
	<rect x="90.288" y="809.99" width="850.394" height="99.213"/>
	<path d="M119.684,720.112l82.654-13.35c17.21-2.78,33.107-10.91,45.433-23.237l404.539-404.539l-113.4-113.4l-155.35,153.06
		L130.075,569.414c-11.585,11.461-19.538,26.08-22.867,42.033l-16.372,78.472C87.207,707.314,102.142,722.945,119.684,720.112z"/>
	<path d="M749.901,181.397c13.2-13.21,13.2-34.62,0-47.83l-64.85-64.85c-13.14-13.14-34.42-13.22-47.65-0.18l-63.23,62.31
		l113.14,113.14L749.901,181.397z"/>
</g>
</svg>
