<?xml version="1.0" encoding="utf-8"?>
<!-- Generator: Adobe Illustrator 22.1.0, SVG Export Plug-In . SVG Version: 6.00 Build 0)  -->
<svg version="1.1" id="图形" xmlns="http://www.w3.org/2000/svg" xmlns:xlink="http://www.w3.org/1999/xlink" x="0px" y="0px"
	 viewBox="90.288 58.809 850.394 850.394" enable-background="new 90.288 58.809 850.394 850.394" xml:space="preserve">
<g>
	<path fill="#080103" d="M776.576,453.954L611.7,320.051c-0.442-0.359-0.895-0.705-1.355-1.038
		c-11.448-8.263-26.494-9.625-39.274-3.547c-13.23,6.294-21.779,19.756-21.779,34.295v66.943H275.221
		c-12.259,0-23.285,7.459-27.846,18.838c-1.707,4.258-2.38,8.745-2.089,13.137c0.173,7.574,0.175,62.564,0.004,70.56
		c-0.178,2.574-0.024,5.206,0.492,7.839c2.759,14.076,15.095,24.229,29.439,24.229H549.29v66.943
		c0,14.537,8.548,27.998,21.771,34.291c5.163,2.458,10.921,3.758,16.65,3.758c8.197,0,16.028-2.528,22.646-7.311
		c0.457-0.33,0.904-0.673,1.342-1.028l164.882-133.908c9.319-7.174,14.849-18.319,14.849-30.047
		C791.43,472.274,785.899,461.128,776.576,453.954z M609.29,572.622v-51.315c0-16.568-13.432-30-30-30H305.417
		c0-2.363,0-4.894,0-7.607c0-2.346-0.001-4.69-0.003-6.996l273.877,0c16.568,0,30-13.432,30-30v-51.314l109.114,88.617
		L609.29,572.622z"/>
	<path fill="#080103" d="M190.66,424.278h-77.872c-12.426,0-22.5,10.074-22.5,22.5v74.89c0,12.427,10.074,22.5,22.5,22.5h77.872
		c12.426,0,22.5-10.073,22.5-22.5v-74.89C213.16,434.352,203.086,424.278,190.66,424.278z M168.16,499.168h-32.872v-29.89h32.872
		V499.168z"/>
	<path fill="#080103" d="M918.182,424.278H840.31c-12.427,0-22.5,10.074-22.5,22.5v74.89c0,12.427,10.073,22.5,22.5,22.5h77.872
		c12.427,0,22.5-10.073,22.5-22.5v-74.89C940.682,434.352,930.609,424.278,918.182,424.278z M895.682,499.168H862.81v-29.89h32.872
		V499.168z"/>
</g>
</svg>
