<?xml version="1.0" encoding="utf-8"?>
<!-- Generator: Adobe Illustrator 22.1.0, SVG Export Plug-In . SVG Version: 6.00 Build 0)  -->
<svg version="1.1" id="图形" xmlns="http://www.w3.org/2000/svg" xmlns:xlink="http://www.w3.org/1999/xlink" x="0px" y="0px"
	 viewBox="90.288 58.809 850.394 850.394" enable-background="new 90.288 58.809 850.394 850.394" xml:space="preserve">
<path fill="#080103" d="M910.682,58.809H684.91c-16.568,0-30,13.432-30,30v204.782l-241.001,92.693
	c-9.384,3.61-16.337,11.681-18.517,21.496c-2.18,9.816,0.703,20.071,7.677,27.313l101.639,105.548l-166.304,82.754H120.288
	c-16.568,0-30,13.432-30,30v225.807c0,16.568,13.432,30,30,30H346.06c16.568,0,30-13.432,30-30V671.675l191.984-95.532
	c8.553-4.256,14.567-12.332,16.196-21.745c1.628-9.414-1.325-19.041-7.952-25.923l-98.631-102.424l211.729-81.434h221.296
	c16.568,0,30-13.432,30-30V88.809C940.682,72.24,927.25,58.809,910.682,58.809z M316.06,849.202H150.288V683.396H316.06V849.202z
	 M880.682,284.616H714.91V118.809h165.772V284.616z"/>
</svg>
