<?xml version="1.0" encoding="utf-8"?>
<!-- Generator: Adobe Illustrator 22.1.0, SVG Export Plug-In . SVG Version: 6.00 Build 0)  -->
<svg version="1.1" id="图形" xmlns="http://www.w3.org/2000/svg" xmlns:xlink="http://www.w3.org/1999/xlink" x="0px" y="0px"
	 viewBox="90.288 58.809 850.394 850.394" enable-background="new 90.288 58.809 850.394 850.394" xml:space="preserve">
<g>
	<path d="M905.725,161.016H651.477v-57.774c0-24.5-19.941-44.433-44.453-44.433H423.948c-24.512,0-44.454,19.933-44.454,44.433
		v57.774h-254.25c-16.568,0-30,13.432-30,30s13.432,30,30,30h71.764v644.366c0,24.72,19.087,44.831,42.549,44.831h551.856
		c23.462,0,42.55-20.111,42.55-44.831V221.016h71.762c16.568,0,30-13.432,30-30S922.293,161.016,905.725,161.016z M439.494,118.809
		h151.983v42.207H439.494V118.809z M775.141,851.391H255.83V221.016h168.118h183.076h168.117V851.391z"/>
	<path d="M415.863,294.732c-16.568,0-30,13.432-30,30v421.89c0,16.568,13.432,30,30,30s30-13.432,30-30v-421.89
		C445.863,308.163,432.432,294.732,415.863,294.732z"/>
	<path d="M585.107,324.732v421.89c0,16.568,13.432,30,30,30s30-13.432,30-30v-421.89c0-16.568-13.432-30-30-30
		S585.107,308.163,585.107,324.732z"/>
</g>
</svg>
