<?xml version="1.0" encoding="utf-8"?>
<!-- Generator: Adobe Illustrator 22.1.0, SVG Export Plug-In . SVG Version: 6.00 Build 0)  -->
<svg version="1.1" id="图形" xmlns="http://www.w3.org/2000/svg" xmlns:xlink="http://www.w3.org/1999/xlink" x="0px" y="0px"
	 viewBox="90.288 58.809 850.394 850.394" enable-background="new 90.288 58.809 850.394 850.394" xml:space="preserve">
<g>
	<path d="M910.682,232.495c16.568,0,30-13.432,30-30V88.809c0-16.568-13.432-30-30-30H800.603c-16.568,0-30,13.432-30,30v28.733
		H260.367V88.809c0-16.568-13.432-30-30-30H120.288c-16.568,0-30,13.432-30,30v113.687c0,16.568,13.432,30,30,30h29.147v503.021
		h-29.147c-16.568,0-30,13.432-30,30v113.687c0,16.568,13.432,30,30,30h110.079c16.568,0,30-13.432,30-30v-27.675h510.236v27.675
		c0,16.568,13.432,30,30,30h110.079c16.568,0,30-13.432,30-30V765.516c0-16.568-13.432-30-30-30h-27.261V232.495H910.682z
		 M830.603,118.809h50.079v53.687h-50.079V118.809z M150.288,118.809h50.079v53.687h-50.079V118.809z M200.367,849.202h-50.079
		v-53.687h50.079V849.202z M880.682,849.202h-50.079v-53.687h50.079V849.202z M827.935,735.516h-27.332c-16.568,0-30,13.432-30,30
		v30.525H260.367v-30.525c0-16.568-13.432-30-30-30h-25.446V232.495h25.446c16.568,0,30-13.432,30-30v-29.468h510.236v29.468
		c0,16.568,13.432,30,30,30h27.332V735.516z"/>
	<rect x="276.678" y="243.284" width="216" height="216"/>
	<path d="M785.63,368.567c0.337-0.433,0.656-0.876,0.959-1.328c0.077-0.116,0.163-0.227,0.238-0.344
		c0.342-0.533,0.655-1.082,0.949-1.638c0.121-0.228,0.229-0.46,0.341-0.691c0.177-0.364,0.344-0.731,0.5-1.103
		c0.104-0.249,0.208-0.497,0.303-0.748c0.164-0.434,0.311-0.874,0.448-1.317c0.053-0.173,0.118-0.344,0.167-0.518
		c0.17-0.599,0.307-1.206,0.427-1.817c0.041-0.213,0.073-0.427,0.108-0.641c0.074-0.449,0.136-0.9,0.183-1.353
		c0.022-0.21,0.044-0.42,0.059-0.631c0.041-0.542,0.062-1.085,0.063-1.63c0-0.106,0.008-0.211,0.007-0.317
		c-0.007-0.652-0.046-1.305-0.111-1.958c-0.017-0.169-0.044-0.337-0.064-0.506c-0.058-0.477-0.13-0.952-0.219-1.426
		c-0.043-0.229-0.089-0.457-0.139-0.686c-0.093-0.422-0.201-0.841-0.319-1.26c-0.065-0.231-0.123-0.462-0.195-0.691
		c-0.184-0.582-0.389-1.161-0.623-1.733c-0.001-0.002-0.002-0.005-0.003-0.007c-0.094-0.229-0.206-0.451-0.307-0.677
		c-0.17-0.378-0.343-0.753-0.531-1.119c-0.128-0.249-0.266-0.493-0.404-0.738c-0.205-0.363-0.42-0.718-0.644-1.067
		c-0.132-0.206-0.26-0.412-0.399-0.614c-0.372-0.541-0.761-1.067-1.176-1.57c-0.058-0.071-0.124-0.137-0.183-0.207
		c-0.391-0.463-0.802-0.906-1.227-1.334c-0.064-0.064-0.117-0.134-0.182-0.198l-88.614-87.068
		c-8.863-8.708-23.109-8.583-31.818,0.28c-8.71,8.864-8.584,23.109,0.279,31.818l49.38,48.519H556.486
		c-12.427,0-22.5,10.074-22.5,22.5s10.073,22.5,22.5,22.5h156.397l-50.271,49.393c-8.864,8.709-8.99,22.955-0.281,31.818
		c4.405,4.483,10.226,6.731,16.051,6.731c5.691,0,11.388-2.146,15.769-6.451l89.507-87.942c0.059-0.058,0.11-0.12,0.168-0.178
		c0.036-0.036,0.076-0.066,0.111-0.102c0.083-0.085,0.153-0.178,0.235-0.264c0.37-0.388,0.724-0.786,1.061-1.195
		C785.367,368.895,785.501,368.733,785.63,368.567z"/>
	<path d="M456.071,641.91l-49.393,50.271V535.784c0-12.427-10.074-22.5-22.5-22.5s-22.5,10.073-22.5,22.5v156.398l-48.519-49.38
		c-8.709-8.863-22.955-8.989-31.818-0.279c-8.864,8.709-8.989,22.954-0.28,31.818l87.068,88.614c0.063,0.064,0.133,0.117,0.196,0.18
		c0.443,0.441,0.902,0.867,1.383,1.271c0.058,0.049,0.113,0.103,0.172,0.152c0.508,0.418,1.039,0.809,1.585,1.183
		c0.204,0.14,0.411,0.269,0.619,0.402c0.355,0.227,0.717,0.443,1.086,0.651c0.241,0.135,0.481,0.272,0.726,0.398
		c0.403,0.207,0.816,0.396,1.234,0.58c1.531,0.672,3.116,1.184,4.735,1.499c0.535,0.105,1.074,0.17,1.612,0.235
		c0.175,0.021,0.349,0.059,0.525,0.076c0.724,0.07,1.448,0.106,2.171,0.106c0.108,0,0.215-0.014,0.322-0.016
		c0.62-0.009,1.239-0.032,1.857-0.091c0.19-0.019,0.378-0.058,0.567-0.081c0.537-0.066,1.074-0.134,1.606-0.239
		c0.175-0.034,0.345-0.087,0.519-0.125c0.542-0.12,1.082-0.245,1.616-0.405c0.165-0.049,0.324-0.115,0.488-0.169
		c0.532-0.173,1.062-0.353,1.583-0.567c0.178-0.073,0.349-0.163,0.525-0.241c0.492-0.217,0.982-0.439,1.461-0.693
		c0.215-0.114,0.421-0.248,0.633-0.369c0.423-0.242,0.846-0.484,1.255-0.756c0.263-0.174,0.512-0.371,0.768-0.557
		c0.342-0.249,0.687-0.491,1.018-0.761c0.29-0.237,0.564-0.498,0.844-0.75c0.236-0.213,0.482-0.408,0.711-0.632
		c0.046-0.045,0.084-0.095,0.129-0.14c0.049-0.049,0.103-0.09,0.151-0.139l87.942-89.506c8.709-8.864,8.583-23.11-0.28-31.819
		C479.027,632.924,464.781,633.047,456.071,641.91z"/>
</g>
</svg>
